<svg width="24" height="24" viewBox="0 0 24 24" fill="none" xmlns="http://www.w3.org/2000/svg">
<path d="M11 16H13V18H11V16ZM11 6H13V12H11V6ZM9 14H15V16H9V14ZM7 12H17V14H7V12ZM11 1H13V3H11V1ZM13 3H15V5H13V3ZM11 3H9V5H11V3ZM15 5H17V7H15V5ZM9 5H7V7H9V5ZM17 7H19V9H17V7ZM7 7H5V9H7V7ZM19 9H21V11H19V9ZM5 9H3V11H5V9ZM21 11H23V13H21V11ZM3 11H1V13H3V11ZM19 13H21V15H19V13ZM5 13H3V15H5V13ZM17 15H19V17H17V15ZM7 15H5V17H7V15ZM15 17H17V19H15V17ZM9 17H7V19H9V17ZM13 19H15V21H13V19ZM11 19H9V21H11V19ZM11 21H13V23H11V21Z" fill="white"/>
</svg>
